<svg width="48" height="48" viewBox="0 0 48 48" fill="none" xmlns="http://www.w3.org/2000/svg">
<path d="M46.2712 9.33023L22.2813 33.3382C21.3457 34.2746 19.8343 34.2746 18.8987 33.3382L12.1096 26.544C11.174 25.6077 11.174 24.0952 12.1096 23.1588C13.0452 22.2225 14.5565 22.2225 15.4921 23.1588L20.578 28.2486L42.8646 5.9451C43.8002 5.00878 45.3116 5.00878 46.2472 5.9451C47.2068 6.88141 47.2068 8.39391 46.2712 9.33023ZM33.0288 1.7677C28.9745 0.111149 24.3684 -0.465044 19.5704 0.399245C9.80654 2.15183 2.00983 10.0265 0.354522 19.7977C-2.38033 36.0031 11.102 49.8798 27.1992 47.7911C36.6992 46.5667 44.6639 39.4843 47.1588 30.2412C48.1184 26.712 48.2144 23.3029 47.6626 20.1098C47.3507 18.1892 44.9757 17.4449 43.5843 18.8134C43.0326 19.3656 42.7927 20.1819 42.9366 20.9501C43.4644 24.1432 43.2245 27.5523 41.6891 31.1775C38.9063 37.6837 32.8608 42.4613 25.8318 43.1095C13.5969 44.2379 3.44922 33.8664 4.96058 21.5503C5.99215 13.0515 12.8293 6.13716 21.2977 4.96077C25.448 4.38458 29.3823 5.17684 32.7409 6.90542C33.6765 7.38558 34.804 7.21752 35.5477 6.47327C36.6992 5.32089 36.4113 3.37624 34.9719 2.63199C34.3242 2.34389 33.6765 2.03179 33.0288 1.7677Z" fill="#F9F9F9"/>
</svg>
