<svg width="48" height="48" viewBox="0 0 48 48" fill="none" xmlns="http://www.w3.org/2000/svg">
<path opacity="0.89" d="M24 12C25.32 12 26.4 13.08 26.4 14.4V24C26.4 25.32 25.32 26.4 24 26.4C22.68 26.4 21.6 25.32 21.6 24V14.4C21.6 13.08 22.68 12 24 12ZM23.976 0C10.728 0 0 10.752 0 24C0 37.248 10.728 48 23.976 48C37.248 48 48 37.248 48 24C48 10.752 37.248 0 23.976 0ZM24 43.2C13.392 43.2 4.8 34.608 4.8 24C4.8 13.392 13.392 4.8 24 4.8C34.608 4.8 43.2 13.392 43.2 24C43.2 34.608 34.608 43.2 24 43.2ZM26.4 36H21.6V31.2H26.4V36Z" fill="#F9F9F9"/>
</svg>
