<svg width="84" height="84" viewBox="0 0 84 84" fill="none" xmlns="http://www.w3.org/2000/svg">
<g filter="url(#filter0_d_9796_173786)">
<path d="M74.4803 43.3571H47.6945V70.1429C47.6945 73.0893 45.2838 75.5 42.3374 75.5C39.391 75.5 36.9803 73.0893 36.9803 70.1429V43.3571H10.1945C7.24812 43.3571 4.8374 40.9464 4.8374 38C4.8374 35.0536 7.24812 32.6429 10.1945 32.6429H36.9803V5.85714C36.9803 2.91071 39.391 0.5 42.3374 0.5C45.2838 0.5 47.6945 2.91071 47.6945 5.85714V32.6429H74.4803C77.4267 32.6429 79.8374 35.0536 79.8374 38C79.8374 40.9464 77.4267 43.3571 74.4803 43.3571Z" fill="#F9F9F9"/>
</g>
<defs>
<filter id="filter0_d_9796_173786" x="0.837402" y="0.5" width="83" height="83" filterUnits="userSpaceOnUse" color-interpolation-filters="sRGB">
<feFlood flood-opacity="0" result="BackgroundImageFix"/>
<feColorMatrix in="SourceAlpha" type="matrix" values="0 0 0 0 0 0 0 0 0 0 0 0 0 0 0 0 0 0 127 0" result="hardAlpha"/>
<feOffset dy="4"/>
<feGaussianBlur stdDeviation="2"/>
<feComposite in2="hardAlpha" operator="out"/>
<feColorMatrix type="matrix" values="0 0 0 0 0 0 0 0 0 0 0 0 0 0 0 0 0 0 0.25 0"/>
<feBlend mode="normal" in2="BackgroundImageFix" result="effect1_dropShadow_9796_173786"/>
<feBlend mode="normal" in="SourceGraphic" in2="effect1_dropShadow_9796_173786" result="shape"/>
</filter>
</defs>
</svg>
