<svg width="16" height="16" viewBox="0 0 16 16" fill="none" xmlns="http://www.w3.org/2000/svg">
<path d="M9.66419 5.06387H11.939C13.0963 5.06387 14.1584 5.84066 14.3804 6.98205C14.6261 8.28197 13.7938 9.44714 12.6207 9.74041L13.8334 10.9531C15.2364 10.2318 16.1717 8.71792 15.9736 6.98205C15.7516 4.95291 13.9206 3.47861 11.8756 3.47861H9.66419C9.22824 3.47861 8.87156 3.83529 8.87156 4.27124C8.87156 4.70719 9.22824 5.06387 9.66419 5.06387ZM1.34946 0.712314C1.04033 0.403187 0.540973 0.403187 0.231845 0.712314C-0.0772818 1.02144 -0.0772818 1.5208 0.231845 1.82993L2.3244 3.92248C0.921437 4.64378 -0.0138711 6.15771 0.184287 7.89358C0.406225 9.93065 2.23721 11.4049 4.2822 11.4049H6.49365C6.9296 11.4049 7.28629 11.0483 7.28629 10.6123C7.28629 10.1764 6.9296 9.81968 6.49365 9.81968H4.21879C3.06155 9.81968 1.99942 9.0429 1.77748 7.9015C1.53177 6.60158 2.37196 5.43641 3.53713 5.14314L5.21751 6.82352C5.03521 6.97412 4.90839 7.18813 4.90839 7.44178C4.90839 7.87772 5.26507 8.23441 5.70102 8.23441H6.6284L13.6828 15.2889C13.992 15.598 14.4913 15.598 14.8005 15.2889C15.1096 14.9797 15.1096 14.4804 14.8005 14.1712L1.34946 0.712314ZM9.66419 6.64914L11.0196 8.00455C11.1623 7.86187 11.2495 7.66371 11.2495 7.44178C11.2495 7.00583 10.8928 6.64914 10.4568 6.64914H9.66419Z" fill="#F9F9F9"/>
</svg>
